<svg xmlns="http://www.w3.org/2000/svg" viewBox="0 0 36.78 50.37"><defs><style>.cls-1{fill:#ff8e00;}</style></defs><title>Recurso 21</title><g id="Capa_2" data-name="Capa 2"><g id="Capa_3" data-name="Capa 3"><path class="cls-1" d="M18.39,37.81a1.47,1.47,0,0,0,1.47-1.47V30.22a1.48,1.48,0,0,0-2.95,0v6.12A1.47,1.47,0,0,0,18.39,37.81Z"/><path class="cls-1" d="M35.3,16.19h-7V9c0-5-4.46-9-9.93-9S8.46,4,8.46,9v7.19h-7A1.47,1.47,0,0,0,0,17.66V36.53A13.86,13.86,0,0,0,13.84,50.37h9.1A13.86,13.86,0,0,0,36.78,36.53V17.66A1.47,1.47,0,0,0,35.3,16.19ZM11.41,9c0-3.34,3.13-6,7-6s7,2.71,7,6.05v7.19h-14ZM33.83,36.53A10.9,10.9,0,0,1,22.94,47.42h-9.1A10.9,10.9,0,0,1,3,36.53V19.14H33.83Z"/></g></g></svg>