<svg xmlns="http://www.w3.org/2000/svg" viewBox="0 0 199.99 28.52"><defs><style>.cls-1{font-size:27.32px;font-family:Blanco-Regular, Blanco;}.cls-2{letter-spacing:0em;}.cls-3{letter-spacing:-0.01em;}</style></defs><title>Recurso 24</title><g id="Capa_2" data-name="Capa 2"><g id="Capa_7" data-name="Capa 7"><path d="M12.26,13.57h9.12c-.28,6.5-4.18,9.29-8.89,9.29-7.23-.14-9-5.08-8.89-9.14a8.8,8.8,0,0,1,8.77-8.83c2.75,0,5.31.76,7.1,3.43-2.42,4.11-7.5,4.09-10.1,2.82a20.69,20.69,0,0,0,0,5.52,8.3,8.3,0,0,1,6.43,0,4.65,4.65,0,0,0,.25-2.21l-3.82,0Zm-2.21-3.2a6.85,6.85,0,0,0,4.88.07.37.37,0,0,0,.24-.48,11.69,11.69,0,0,0-2.32-3.6.38.38,0,0,0-.57,0A17.42,17.42,0,0,0,9.85,9.85.37.37,0,0,0,10.05,10.37Zm-3.14-2L8.66,9.85a.14.14,0,0,0,.21-.06A12.44,12.44,0,0,1,11,6.29a.14.14,0,0,0-.15-.22A14.31,14.31,0,0,0,6.91,8.19.13.13,0,0,0,6.91,8.4Zm11.15-.21a14.61,14.61,0,0,0-3.91-2.12.14.14,0,0,0-.16.22,12.44,12.44,0,0,1,2.1,3.5.15.15,0,0,0,.22.06L18.05,8.4A.14.14,0,0,0,18.06,8.19Zm-3,9.2a6.79,6.79,0,0,0-4.88-.06.37.37,0,0,0-.24.48,12.13,12.13,0,0,0,2.32,3.6.38.38,0,0,0,.57,0,17.66,17.66,0,0,0,2.43-3.48A.38.38,0,0,0,15,17.39Zm3.14,2-1.74-1.44a.14.14,0,0,0-.22,0,12.44,12.44,0,0,1-2.1,3.5.14.14,0,0,0,.16.22,14.33,14.33,0,0,0,3.91-2.12A.14.14,0,0,0,18.18,19.36ZM7,19.57a14.13,14.13,0,0,0,3.9,2.12.14.14,0,0,0,.16-.22A12.44,12.44,0,0,1,9,18a.14.14,0,0,0-.21,0L7,19.36A.13.13,0,0,0,7,19.57ZM6,18.4c.15.2.38.15.6,0L8.2,17.25c.17-.12.3-.29.22-.49a10.05,10.05,0,0,1-.23-2.58H4.6A7.94,7.94,0,0,0,6,18.4ZM4.6,13.61H8.19A10.09,10.09,0,0,1,8.42,11a.39.39,0,0,0-.22-.49L6.58,9.38c-.23-.15-.45-.2-.6,0A8,8,0,0,0,4.6,13.61Zm15.84.79H16.85a7.65,7.65,0,0,1-.22,2.36c-.08.2.05.36.22.49l1.62,1.15c.2.13.45.2.61,0A7.09,7.09,0,0,0,20.44,14.4Z"/><text class="cls-1" transform="translate(0 22.4)"><tspan xml:space="preserve">    uías inme</tspan><tspan class="cls-2" x="133.97" y="0">r</tspan><tspan x="144.7" y="0">s</tspan><tspan class="cls-3" x="155.85" y="0">iv</tspan><tspan x="176.15" y="0">as</tspan></text></g></g></svg>