<svg xmlns="http://www.w3.org/2000/svg" viewBox="0 0 351.4 50.11"><defs><style>.cls-1,.cls-2{fill:#fff;}.cls-2{font-size:48px;font-family:Blanco-Regular, Blanco;}.cls-3{letter-spacing:0em;}.cls-4{letter-spacing:0em;}.cls-5{letter-spacing:-0.01em;}</style></defs><title>Recurso 1</title><g id="Capa_2" data-name="Capa 2"><g id="Capa_2-2" data-name="Capa 2"><path class="cls-1" d="M21.53,23.85h16c-.5,11.42-7.35,16.33-15.62,16.33C9.24,39.93,6.14,31.24,6.31,24.1,6.31,17,11.88,8.6,21.74,8.6c4.82,0,9.33,1.33,12.46,6C30,21.83,21,21.8,16.45,19.58a37.2,37.2,0,0,0,0,9.69,14.63,14.63,0,0,1,11.31,0,8.28,8.28,0,0,0,.44-3.87l-6.71,0Zm-3.87-5.62a12,12,0,0,0,8.57.11.66.66,0,0,0,.42-.85,21.05,21.05,0,0,0-4.08-6.32.66.66,0,0,0-1,0A30.81,30.81,0,0,0,17.3,17.3.68.68,0,0,0,17.66,18.23Zm-5.53-3.46L15.2,17.3a.25.25,0,0,0,.38-.1,22.17,22.17,0,0,1,3.69-6.15.24.24,0,0,0-.27-.38,25.32,25.32,0,0,0-6.87,3.72A.25.25,0,0,0,12.13,14.77Zm19.59-.38a25.32,25.32,0,0,0-6.87-3.72.24.24,0,0,0-.27.38,21.93,21.93,0,0,1,3.69,6.15.25.25,0,0,0,.38.1l3.07-2.53A.25.25,0,0,0,31.72,14.39Zm-5.3,16.17a12,12,0,0,0-8.57-.12.66.66,0,0,0-.43.85,21.1,21.1,0,0,0,4.09,6.32.66.66,0,0,0,1,0,30.65,30.65,0,0,0,4.28-6.12A.67.67,0,0,0,26.42,30.56ZM32,34l-3.08-2.53a.24.24,0,0,0-.37.1,22.17,22.17,0,0,1-3.69,6.15.24.24,0,0,0,.27.38A25.05,25.05,0,0,0,32,34.39.25.25,0,0,0,32,34Zm-19.59.38a24.91,24.91,0,0,0,6.87,3.72.24.24,0,0,0,.26-.38,22.41,22.41,0,0,1-3.69-6.15.24.24,0,0,0-.37-.1L12.36,34A.25.25,0,0,0,12.36,34.39Zm-1.86-2c.26.34.68.25,1.05,0l2.86-2c.29-.22.52-.51.39-.86a16.18,16.18,0,0,1-.41-4.54H8.08A13.89,13.89,0,0,0,10.5,32.34ZM8.08,23.91h6.31a16.21,16.21,0,0,1,.41-4.55.71.71,0,0,0-.39-.86l-2.86-2c-.39-.27-.79-.36-1.05,0A13.87,13.87,0,0,0,8.08,23.91Zm27.84,1.4H29.61a13.65,13.65,0,0,1-.4,4.14c-.13.35.08.63.39.86l2.85,2c.35.24.8.36,1.06,0A12.55,12.55,0,0,0,35.92,25.31Z"/><text class="cls-2" transform="translate(0 39.36)"><tspan xml:space="preserve">    uías inme</tspan><tspan class="cls-3" x="235.39" y="0">r</tspan><tspan class="cls-4" x="254.25" y="0">s</tspan><tspan class="cls-5" x="273.83" y="0">iv</tspan><tspan x="309.5" y="0">as</tspan></text></g></g></svg>